# xmcd
#
# Track frame offsets:
#	150
#	33612
#	54317
#	76853
#	100018
#	112910
#	137459
#	155059
#	176987
#	201182
#	220571
#	250750
#
# Disc length: 4095 seconds
#
# Revision: 2
# Processed by: cddbd v1.5.2PL0 Copyright (c) Steve Scherf et al.
# Submitted via: MusicManager 7.3.0.0 
#
DISCID=990ffd0c
DTITLE=Whitley,Chris and Jeff Lang - Dislocation Blues
DYEAR=2006
DGENRE=Acoustic Blues - Singer/Songwriter
TTITLE0=Stagger Lee
TTITLE1=Twelve Thousand Miles
TTITLE2=When I Paint My Masterpiece
TTITLE3=Rocket House
TTITLE4=The Road Leads Down
TTITLE5=Dislocation Blues
TTITLE6=Forever In My Life
TTITLE7=Velocity Girl
TTITLE8=Ravenswood
TTITLE9=Underground
TTITLE10=Changing Of The Guard
TTITLE11=Motion Bride
EXTD=
EXTT0=
EXTT1=
EXTT2=
EXTT3=
EXTT4=
EXTT5=
EXTT6=
EXTT7=
EXTT8=
EXTT9=
EXTT10=
EXTT11=
PLAYORDER=
